<svg width="48" height="48" viewBox="0 0 48 48" fill="none" xmlns="http://www.w3.org/2000/svg">
<path d="M43.434 30H12.036L12.51 33.414C12.716 34.888 13.994 36 15.482 36H40V38H15.482C13.002 38 10.872 36.146 10.53 33.69L6.49 4.588C6.284 3.112 5.006 2 3.518 2H0V0H3.518C5.998 0 8.128 1.854 8.47 4.312L8.982 8H14.384C14.58 8.686 14.848 9.352 15.166 10H9.258L11.758 28H41.794L45.394 10H38.878C39.196 9.35 39.468 8.684 39.656 8H47.834L43.434 30ZM18 44C18 46.206 16.206 48 14 48C11.794 48 10 46.206 10 44C10 41.794 11.794 40 14 40C16.206 40 18 41.794 18 44ZM16 44C16 42.896 15.102 42 14 42C12.898 42 12 42.896 12 44C12 45.104 12.898 46 14 46C15.102 46 16 45.104 16 44ZM38 44C38 46.206 36.206 48 34 48C31.794 48 30 46.206 30 44C30 41.794 31.794 40 34 40C36.206 40 38 41.794 38 44ZM36 44C36 42.896 35.102 42 34 42C32.898 42 32 42.896 32 44C32 45.104 32.898 46 34 46C35.102 46 36 45.104 36 44ZM18.004 5.42C17.886 2.572 20.102 0.144 22.952 0C24.64 0.082 26.088 0.912 26.996 2.142C27.894 0.914 29.316 0.082 30.948 0C33.906 0.142 36.124 2.584 35.994 5.442C35.994 10.4 28.41 15.486 27.546 16.05L27 16.406L26.454 16.05C25.59 15.488 18.028 10.416 18.004 5.42ZM20.004 5.398C20.004 8.466 24.634 12.348 27 14.006C29.366 12.346 33.996 8.466 33.996 5.398C34.078 3.592 32.71 2.086 30.95 2C29.394 2.082 28.096 3.406 28.002 5.018C28.004 5.088 28.002 6 28.002 6H26.002C26.002 6 25.998 5.088 26.002 5.018C25.908 3.404 24.604 2.082 22.956 2C21.294 2.086 19.926 3.592 20.008 5.352V5.398H20.004Z" fill="#C0B193"/>
</svg>
