<svg width="32" height="32" viewBox="0 0 32 32" fill="none" xmlns="http://www.w3.org/2000/svg">
<path fill-rule="evenodd" clip-rule="evenodd" d="M7.78644 13.1422C10.1745 18.3398 14.4167 22.4589 19.6824 24.6929L19.6984 24.6995L20.7171 25.1529C21.3463 25.4335 22.0529 25.4889 22.7182 25.31C23.3835 25.131 23.9669 24.7286 24.3704 24.1702L26.0691 21.8195C26.119 21.7503 26.1405 21.6646 26.1291 21.58C26.1177 21.4954 26.0743 21.4184 26.0078 21.3649L23.0424 18.9715C23.0074 18.9433 22.9671 18.9224 22.9238 18.9102C22.8806 18.898 22.8353 18.8946 22.7907 18.9004C22.7461 18.9061 22.7031 18.9208 22.6644 18.9436C22.6256 18.9663 22.5918 18.9967 22.5651 19.0329L21.4104 20.5902C21.2744 20.7739 21.0795 20.9055 20.8583 20.963C20.637 21.0205 20.4027 21.0005 20.1944 20.9062C16.2501 19.1176 13.0897 15.9572 11.3011 12.0129C11.2069 11.8046 11.1868 11.5703 11.2443 11.349C11.3018 11.1278 11.4334 10.9329 11.6171 10.7969L13.1731 9.64086C13.2093 9.61414 13.2396 9.58038 13.2624 9.54161C13.2852 9.50284 13.2999 9.45987 13.3056 9.41528C13.3113 9.37069 13.308 9.3254 13.2958 9.28213C13.2835 9.23887 13.2627 9.19852 13.2344 9.16353L10.8424 6.1982C10.7889 6.1317 10.7119 6.08828 10.6273 6.07686C10.5427 6.06545 10.457 6.08693 10.3878 6.13686L8.02378 7.84353C7.46164 8.24901 7.05725 8.83662 6.87933 9.50651C6.7014 10.1764 6.76092 10.8872 7.04778 11.5182L7.78644 13.1422ZM18.8931 26.5302C13.1722 24.1004 8.56367 19.6236 5.96911 13.9755L5.96644 13.9729L5.22778 12.3462C4.74967 11.2948 4.65032 10.1103 4.94661 8.99389C5.2429 7.87752 5.91655 6.89816 6.85311 6.2222L9.21711 4.51553C9.70128 4.16609 10.301 4.01556 10.8928 4.09493C11.4846 4.1743 12.0235 4.47753 12.3984 4.9422L14.7918 7.90886C14.9893 8.15363 15.1353 8.43579 15.221 8.73841C15.3067 9.04102 15.3303 9.35784 15.2904 9.66981C15.2506 9.98179 15.1481 10.2825 14.989 10.5538C14.83 10.8252 14.6178 11.0616 14.3651 11.2489L13.4718 11.9102C14.9827 14.8382 17.3677 17.2232 20.2958 18.7342L20.9584 17.8409C21.1457 17.5884 21.382 17.3763 21.6533 17.2174C21.9245 17.0585 22.2251 16.9561 22.5369 16.9162C22.8487 16.8764 23.1653 16.9 23.4678 16.9855C23.7703 17.0711 24.0524 17.2169 24.2971 17.4142L27.2638 19.8075C27.7288 20.1826 28.0323 20.7217 28.1117 21.3138C28.191 21.9059 28.0403 22.5059 27.6904 22.9902L25.9918 25.3422C25.3194 26.2728 24.3472 26.9436 23.2386 27.242C22.13 27.5404 20.9524 27.4482 19.9038 26.9809L18.8931 26.5302Z" fill="#C0B193"/>
</svg>
