<svg width="32" height="32" viewBox="0 0 32 32" fill="none" xmlns="http://www.w3.org/2000/svg">
<g clip-path="url(#clip0_1213_3840)">
<path d="M31.8053 30.8613L23.2067 22.2627C25.3493 19.896 26.668 16.7693 26.668 13.3333C26.6667 5.98133 20.6853 0 13.3333 0C5.98133 0 0 5.98133 0 13.3333C0 20.6853 5.98133 26.6667 13.3333 26.6667C16.7693 26.6667 19.896 25.3493 22.2627 23.2053L30.8613 31.804L31.8053 30.8613ZM13.3333 25.3333C6.71733 25.3333 1.33333 19.9493 1.33333 13.3333C1.33333 6.71733 6.71733 1.33333 13.3333 1.33333C19.9493 1.33333 25.3333 6.71733 25.3333 13.3333C25.3333 19.9493 19.9507 25.3333 13.3333 25.3333Z" fill="#C0B193"/>
</g>
<defs>
<clipPath id="clip0_1213_3840">
<rect width="32" height="32" fill="white"/>
</clipPath>
</defs>
</svg>
