<svg width="48" height="48" viewBox="0 0 48 48" fill="none" xmlns="http://www.w3.org/2000/svg">
<g clip-path="url(#clip0_1154_1541)">
<path d="M35 1.83398C32.7479 1.86901 30.5449 2.49769 28.6135 3.65653C26.6821 4.81536 25.0907 6.46332 24 8.43398C22.9093 6.46332 21.3178 4.81536 19.3865 3.65653C17.4551 2.49769 15.2521 1.86901 13 1.83398C9.40986 1.98997 6.02739 3.56049 3.59154 6.20245C1.1557 8.84441 -0.135523 12.343 -2.23834e-05 15.934C-2.23834e-05 29.484 21.912 45.134 22.844 45.798L24 46.616L25.156 45.798C26.088 45.138 48 29.484 48 15.934C48.1355 12.343 46.8443 8.84441 44.4084 6.20245C41.9726 3.56049 38.5901 1.98997 35 1.83398Z" fill="#C0B193"/>
</g>
<defs>
<clipPath id="clip0_1154_1541">
<rect width="48" height="48" fill="white"/>
</clipPath>
</defs>
</svg>
