<svg width="32" height="32" viewBox="0 0 32 32" fill="none" xmlns="http://www.w3.org/2000/svg">
<path d="M23.6667 1.33398C20.328 1.33398 17.2973 3.80198 16 7.13932C14.7027 3.80065 11.672 1.33398 8.33333 1.33398C3.73867 1.33398 0 5.07265 0 9.66732C0 18.6807 13.0053 28.4273 15.612 30.2886L16 30.566L16.388 30.2886C18.996 28.4273 32 18.6793 32 9.66732C32 5.07265 28.2613 1.33398 23.6667 1.33398ZM16 28.9247C9.14533 23.9447 1.33333 16.03 1.33333 9.66732C1.33333 5.80732 4.47333 2.66732 8.33333 2.66732C11.9973 2.66732 15.3333 6.48065 15.3333 10.6673H16.6667C16.6667 6.48065 20.0027 2.66732 23.6667 2.66732C27.5267 2.66732 30.6667 5.80732 30.6667 9.66732C30.6667 16.03 22.8547 23.9447 16 28.9247Z" fill="#C0B193"/>
</svg>
